<svg version="1.0" xmlns="http://www.w3.org/2000/svg"
 width="1600.000000pt" height="412.000000pt" viewBox="0 0 1600.000000 412.000000"
 preserveAspectRatio="xMidYMid meet">
<g transform="translate(0.000000,412.000000) scale(0.100000,-0.100000)"
fill="#ffc400" stroke="none">
<path  fill="#20809f" d="m 10522.2332,1678.821 h -2287.856 v 2287.857 h 2287.856 z" />
<path  fill="#20809f" d="m 13322.2332,1678.821 h -2287.856 v 2287.857 h 2287.856 z" />
<path  fill="#20809f" d="m 15900.2332,1678.821 h -2287.856 v 2287.857 h 2287.856 z" />
<path  d="M8222 2743 l3 -1238 1235 0 1235 0 3 1238 2 1237 -1240 0 -1240 0 2
-1237z m817 650 c34 -141 66 -265 70 -276 8 -20 8 -21 91 303 22 85 44 172 50
193 l11 37 193 0 193 0 74 -275 c41 -151 76 -271 80 -267 3 4 15 50 27 102 50
219 85 367 93 403 l10 37 270 0 269 0 -5 -22 c-6 -29 -59 -257 -85 -368 -11
-47 -58 -249 -104 -450 -135 -584 -195 -841 -209 -895 l-12 -50 -205 0 -204 0
-91 330 c-50 182 -93 336 -96 343 -2 7 -35 -110 -73 -260 -38 -150 -78 -306
-89 -345 l-19 -73 -204 0 c-112 0 -204 2 -204 5 0 2 -9 39 -20 82 -11 43 -47
191 -80 328 -33 138 -90 369 -125 515 -172 703 -205 840 -205 850 0 6 93 10
268 10 l268 0 63 -257z"/>
<path d="M10850 2740 l0 -1240 1235 0 1235 0 0 1240 0 1240 -1235 0 -1235 0 0
-1240z m2000 675 l0 -225 -355 0 -355 0 0 -105 0 -105 245 0 245 0 0 -225 0
-225 -245 0 -245 0 0 -115 0 -115 355 0 355 0 0 -220 0 -220 -765 0 -765 0 0
890 0 890 765 0 765 0 0 -225z"/>
<path d="M13470 2740 l0 -1240 1235 0 1235 0 0 1240 0 1240 -1235 0 -1235 0 0
-1240z m1680 891 c100 -30 163 -66 227 -128 59 -57 106 -145 124 -232 15 -71
7 -212 -16 -276 -25 -70 -80 -150 -131 -189 l-44 -34 38 -24 c65 -44 131 -118
164 -186 29 -57 33 -78 36 -165 3 -58 -1 -124 -8 -156 -27 -126 -118 -245
-229 -301 -120 -60 -120 -60 -795 -60 l-616 0 0 883 c0 486 3 887 7 891 4 4
269 5 588 4 570 -4 581 -4 655 -27z"/>
<path d="M14610 3125 l0 -178 60 6 c118 13 154 54 155 174 0 57 -4 77 -21 100
-30 40 -72 61 -137 69 l-57 7 0 -178z"/>
<path d="M14610 2455 l0 -194 28 4 c15 2 47 7 71 10 90 12 132 59 134 153 3
123 -29 181 -116 207 -28 8 -66 15 -84 15 l-33 0 0 -195z"/>
<path d="M1340 3450 l0 -440 400 0 400 0 0 -475 0 -475 210 0 210 0 0 589 c0
643 0 643 -58 704 -54 57 -53 57 -412 57 l-330 0 0 240 0 240 -210 0 -210 0 0
-440z"/>
<path d="M175 3387 c-43 -31 -52 -40 -74 -81 -18 -32 -21 -54 -21 -166 l0
-130 605 0 605 0 -12 25 c-6 14 -15 25 -19 25 -4 0 -11 9 -14 20 -3 11 -12 26
-18 32 -7 7 -55 77 -107 155 l-95 143 -410 0 c-406 -1 -410 -1 -440 -23z"/>
<path d="M2690 2828 c0 -680 -1 -672 94 -738 l45 -30 540 0 541 0 0 675 0 675
-210 0 -210 0 0 -475 0 -475 -190 0 -190 0 0 475 0 475 -210 0 -210 0 0 -582z"/>
<path d="M3970 3400 c0 -5 6 -29 14 -52 7 -24 19 -63 26 -88 7 -25 16 -56 20
-70 4 -14 13 -45 20 -70 7 -25 16 -56 21 -70 5 -14 15 -50 23 -80 19 -71 134
-467 145 -500 5 -14 14 -45 21 -70 7 -25 16 -58 21 -75 38 -136 57 -173 122
-234 l28 -27 -31 -100 c-18 -54 -40 -124 -50 -154 -9 -30 -27 -89 -40 -130
-12 -41 -31 -99 -40 -128 l-18 -52 221 2 221 3 7 25 c4 14 26 86 48 160 23 74
56 180 72 235 17 55 34 111 38 125 5 14 14 45 21 70 7 25 21 70 30 100 10 30
28 89 40 130 36 123 39 132 58 195 11 33 25 80 32 105 7 25 20 70 30 100 10
30 23 75 30 100 7 25 16 56 20 70 5 14 17 54 28 90 42 137 95 307 108 348 8
23 14 45 14 47 0 3 -96 5 -214 5 l-214 0 -11 -30 c-18 -49 -28 -81 -52 -160
-12 -41 -29 -100 -39 -130 -10 -30 -39 -122 -64 -205 -26 -82 -52 -161 -58
-175 l-11 -25 -8 30 c-7 28 -15 56 -39 140 -5 19 -15 52 -21 73 -5 20 -14 51
-19 67 -5 17 -13 46 -19 65 -5 19 -14 51 -20 70 -15 52 -27 98 -45 165 -9 33
-21 72 -27 88 l-11 27 -214 0 c-131 0 -214 -4 -214 -10z"/>
<path d="M5429 3385 c-42 -27 -71 -65 -87 -114 -17 -50 -16 -1023 1 -1071 19
-55 44 -88 87 -115 l40 -25 450 0 c270 0 450 4 450 9 0 5 6 16 13 23 8 7 66
92 130 188 l117 175 -440 3 -440 2 0 275 0 275 395 0 395 0 0 130 c0 80 -5
140 -12 157 -14 32 -63 85 -95 101 -16 9 -154 12 -495 11 l-473 0 -36 -24z"/>
<path d="M6760 3210 l0 -200 400 0 400 0 0 -475 0 -475 205 0 205 0 0 605 c0
455 -3 611 -12 632 -14 32 -63 85 -95 101 -16 9 -171 12 -562 12 l-541 0 0
-200z"/>
<path d="M80 2570 c0 -354 1 -371 21 -406 23 -42 32 -51 76 -82 31 -22 34 -22
440 -22 l408 0 45 68 c25 37 50 73 57 80 7 7 13 17 13 22 0 5 6 15 13 22 16
16 137 195 137 203 0 3 -180 5 -400 5 l-400 0 0 240 0 240 -205 0 -205 0 0
-370z"/>
<path d="M1340 2500 l0 -440 210 0 210 0 0 440 0 440 -210 0 -210 0 0 -440z"/>
<path d="M5810 2932 c0 -9 28 -51 47 -70 7 -7 13 -17 13 -21 0 -4 8 -17 18
-29 9 -11 55 -79 102 -151 l85 -130 160 0 c144 -1 164 1 199 20 48 25 59 37
85 83 18 32 21 54 21 171 l0 135 -365 0 c-201 0 -365 -3 -365 -8z"/>
<path d="M6760 2500 l0 -440 210 0 210 0 0 440 0 440 -210 0 -210 0 0 -440z"/>
<path d="M12970 1262 c-53 -28 -71 -72 -68 -167 l3 -80 425 -3 c234 -1 435 0
447 3 21 5 15 16 -78 135 l-100 130 -297 0 c-269 0 -301 -2 -332 -18z"/>
<path d="M13904 1264 c-17 -8 -41 -33 -53 -54 -18 -33 -21 -52 -19 -117 l3
-78 445 0 445 0 0 86 c0 93 -10 122 -53 154 -26 19 -45 20 -382 22 -304 3
-359 1 -386 -13z"/>
<path d="M14832 1148 l3 -133 408 -3 407 -2 0 -305 0 -305 150 0 150 0 0 393
c0 428 0 424 -59 464 l-34 23 -514 0 -514 0 3 -132z"/>
<path d="M12460 865 l0 -135 135 0 135 0 0 135 0 135 -135 0 -135 0 0 -135z"/>
<path d="M170 865 l0 -125 6055 0 6055 0 0 125 0 125 -6055 0 -6055 0 0 -125z"/>
<path d="M12902 731 l3 -249 25 -27 c51 -54 56 -55 373 -55 l293 0 52 67 c28
38 72 95 97 127 25 33 45 63 45 68 0 4 -130 8 -290 8 l-290 0 0 155 0 155
-156 0 -155 0 3 -249z"/>
<path d="M13830 751 c0 -255 5 -282 62 -323 33 -23 35 -23 373 -26 379 -3 393
-1 437 60 22 32 23 40 26 276 l3 242 -155 0 -156 0 0 -155 0 -155 -135 0 -134
0 -3 153 -3 152 -157 3 -158 3 0 -230z"/>
<path d="M14830 690 l0 -290 155 0 155 0 0 290 0 290 -155 0 -155 0 0 -290z"/>
<path d="M15240 690 l0 -290 150 0 150 0 0 290 0 290 -150 0 -150 0 0 -290z"/>
</g>
</svg>
